<?xml version="1.0" encoding="UTF-8" standalone="no"?>
<!-- Created with Inkscape (http://www.inkscape.org/) -->

<svg
   xmlns:dc="http://purl.org/dc/elements/1.1/"
   xmlns:cc="http://creativecommons.org/ns#"
   xmlns:rdf="http://www.w3.org/1999/02/22-rdf-syntax-ns#"
   xmlns:svg="http://www.w3.org/2000/svg"
   xmlns="http://www.w3.org/2000/svg"
   xmlns:xlink="http://www.w3.org/1999/xlink"
   xmlns:sodipodi="http://sodipodi.sourceforge.net/DTD/sodipodi-0.dtd"
   xmlns:inkscape="http://www.inkscape.org/namespaces/inkscape"
   width="141.84526"
   height="134.57422"
   id="svg2"
   version="1.1"
   inkscape:version="0.48.1 "
   sodipodi:docname="New document 1">
  <defs
     id="defs4">
    <radialGradient
       inkscape:collect="always"
       xlink:href="#linearGradient666"
       id="radialGradient4057"
       gradientTransform="scale(1.8257419,0.54772255)"
       cx="233.92319"
       cy="1036.4888"
       fx="233.92319"
       fy="1036.4888"
       r="98.260414"
       gradientUnits="userSpaceOnUse" />
    <linearGradient
       id="linearGradient666">
      <stop
         id="stop667"
         stop-color="#FFF"
         stop-opacity="0.336"
         offset="0" />
      <stop
         id="stop668"
         stop-color="#FFF"
         stop-opacity="0"
         offset="1" />
    </linearGradient>
    <radialGradient
       inkscape:collect="always"
       xlink:href="#linearGradient666"
       id="radialGradient4059"
       gradientTransform="scale(1.8257419,0.54772255)"
       cx="233.92319"
       cy="1036.4888"
       fx="233.92319"
       fy="1036.4888"
       r="98.260414"
       gradientUnits="userSpaceOnUse" />
    <radialGradient
       inkscape:collect="always"
       xlink:href="#linearGradient666"
       id="radialGradient4061"
       gradientTransform="scale(1.8257419,0.54772255)"
       cx="233.92319"
       cy="1036.4888"
       fx="233.92319"
       fy="1036.4888"
       r="98.260414"
       gradientUnits="userSpaceOnUse" />
    <radialGradient
       inkscape:collect="always"
       xlink:href="#linearGradient666"
       id="radialGradient4063"
       gradientTransform="scale(1.8257419,0.54772255)"
       cx="233.92319"
       cy="1036.4888"
       fx="233.92319"
       fy="1036.4888"
       r="98.260414"
       gradientUnits="userSpaceOnUse" />
    <radialGradient
       inkscape:collect="always"
       xlink:href="#linearGradient666"
       id="radialGradient4065"
       gradientTransform="scale(1.8257419,0.54772255)"
       cx="233.92319"
       cy="1036.4888"
       fx="233.92319"
       fy="1036.4888"
       r="98.260414"
       gradientUnits="userSpaceOnUse" />
    <radialGradient
       inkscape:collect="always"
       xlink:href="#linearGradient666"
       id="radialGradient4067"
       gradientTransform="scale(1.8257419,0.54772255)"
       cx="233.92319"
       cy="1036.4888"
       fx="233.92319"
       fy="1036.4888"
       r="98.260414"
       gradientUnits="userSpaceOnUse" />
    <radialGradient
       inkscape:collect="always"
       xlink:href="#linearGradient666"
       id="radialGradient4069"
       gradientTransform="scale(1.8257419,0.54772255)"
       cx="233.92319"
       cy="1036.4888"
       fx="233.92319"
       fy="1036.4888"
       r="98.260414"
       gradientUnits="userSpaceOnUse" />
    <radialGradient
       inkscape:collect="always"
       xlink:href="#linearGradient666"
       id="radialGradient4071"
       gradientTransform="scale(1.8257419,0.54772255)"
       cx="233.92319"
       cy="1036.4888"
       fx="233.92319"
       fy="1036.4888"
       r="98.260414"
       gradientUnits="userSpaceOnUse" />
    <radialGradient
       inkscape:collect="always"
       xlink:href="#linearGradient666"
       id="radialGradient4073"
       gradientTransform="scale(1.8257419,0.54772255)"
       cx="233.92319"
       cy="1036.4888"
       fx="233.92319"
       fy="1036.4888"
       r="98.260414"
       gradientUnits="userSpaceOnUse" />
    <radialGradient
       id="radialGradient669"
       xlink:href="#linearGradient666"
       gradientTransform="scale(1.8257419,0.54772255)"
       cx="233.92319"
       cy="1036.4888"
       fx="233.92319"
       fy="1036.4888"
       r="98.260414"
       gradientUnits="userSpaceOnUse" />
  </defs>
  <sodipodi:namedview
     id="base"
     pagecolor="#ffffff"
     bordercolor="#666666"
     borderopacity="1.0"
     inkscape:pageopacity="0.0"
     inkscape:pageshadow="2"
     inkscape:zoom="1"
     inkscape:cx="75.205067"
     inkscape:cy="65.082152"
     inkscape:document-units="px"
     inkscape:current-layer="layer1"
     showgrid="false"
     fit-margin-top="0"
     fit-margin-left="0"
     fit-margin-right="0"
     fit-margin-bottom="0"
     inkscape:window-width="1440"
     inkscape:window-height="838"
     inkscape:window-x="1432"
     inkscape:window-y="-8"
     inkscape:window-maximized="1" />
  <metadata
     id="metadata7">
    <rdf:RDF>
      <cc:Work
         rdf:about="">
        <dc:format>image/svg+xml</dc:format>
        <dc:type
           rdf:resource="http://purl.org/dc/dcmitype/StillImage" />
        <dc:title></dc:title>
      </cc:Work>
    </rdf:RDF>
  </metadata>
  <g
     inkscape:label="Layer 1"
     inkscape:groupmode="layer"
     id="layer1">
    <g
       id="g1798"
       style="fill-rule:evenodd"
       transform="matrix(4.2619466,0,0,4.2619466,0.1146911,27.063789)">
      <path
         id="path691"
         sodipodi:rx="179.39815"
         sodipodi:ry="53.819443"
         sodipodi:type="arc"
         d="m 606.48149,567.70831 c 0,29.72366 -80.31929,53.81945 -179.39815,53.81945 -99.07886,0 -179.39814,-24.09579 -179.39814,-53.81945 0,-29.72365 80.31928,-53.81944 179.39814,-53.81944 99.07886,0 179.39815,24.09579 179.39815,53.81944 z"
         transform="matrix(0.0319805,0,0,0.109292,5.149671,-45.83576)"
         sodipodi:cy="567.70831"
         sodipodi:cx="427.08334"
         style="fill:url(#radialGradient4057);fill-opacity:0.75" />
      <path
         id="path690"
         sodipodi:rx="179.39815"
         sodipodi:ry="53.819443"
         sodipodi:type="arc"
         d="m 606.48149,567.70831 c 0,29.72366 -80.31929,53.81945 -179.39815,53.81945 -99.07886,0 -179.39814,-24.09579 -179.39814,-53.81945 0,-29.72365 80.31928,-53.81944 179.39814,-53.81944 99.07886,0 179.39815,24.09579 179.39815,53.81944 z"
         transform="matrix(0.0319805,0,0,0.109292,2.022526,-44.58496)"
         sodipodi:cy="567.70831"
         sodipodi:cx="427.08334"
         style="fill:url(#radialGradient4059);fill-opacity:0.75" />
      <path
         id="path689"
         sodipodi:rx="179.39815"
         sodipodi:ry="53.819443"
         sodipodi:type="arc"
         d="m 606.48149,567.70831 c 0,29.72366 -80.31929,53.81945 -179.39815,53.81945 -99.07886,0 -179.39814,-24.09579 -179.39814,-53.81945 0,-29.72365 80.31928,-53.81944 179.39814,-53.81944 99.07886,0 179.39815,24.09579 179.39815,53.81944 z"
         transform="matrix(0.0319805,0,0,0.109292,-3.397884,-48.75451)"
         sodipodi:cy="567.70831"
         sodipodi:cx="427.08334"
         style="fill:url(#radialGradient4061);fill-opacity:0.75" />
      <path
         id="path688"
         sodipodi:rx="179.39815"
         sodipodi:ry="53.819443"
         sodipodi:type="arc"
         d="m 606.48149,567.70831 c 0,29.72366 -80.31929,53.81945 -179.39815,53.81945 -99.07886,0 -179.39814,-24.09579 -179.39814,-53.81945 0,-29.72365 80.31928,-53.81944 179.39814,-53.81944 99.07886,0 179.39815,24.09579 179.39815,53.81944 z"
         transform="matrix(0.0319805,0,0,0.109292,8.068429,-48.33756)"
         sodipodi:cy="567.70831"
         sodipodi:cx="427.08334"
         style="fill:url(#radialGradient4063);fill-opacity:0.75" />
      <path
         id="path674"
         sodipodi:rx="179.39815"
         sodipodi:ry="53.819443"
         sodipodi:type="arc"
         d="m 606.48149,567.70831 c 0,29.72366 -80.31929,53.81945 -179.39815,53.81945 -99.07886,0 -179.39814,-24.09579 -179.39814,-53.81945 0,-29.72365 80.31928,-53.81944 179.39814,-53.81944 99.07886,0 179.39815,24.09579 179.39815,53.81944 z"
         transform="matrix(0.0319805,0,0,0.109292,12.02955,-53.13256)"
         sodipodi:cy="567.70831"
         sodipodi:cx="427.08334"
         style="fill:url(#radialGradient4065);fill-opacity:0.75" />
      <path
         id="path673"
         sodipodi:rx="179.39815"
         sodipodi:ry="53.819443"
         sodipodi:type="arc"
         d="m 606.48149,567.70831 c 0,29.72366 -80.31929,53.81945 -179.39815,53.81945 -99.07886,0 -179.39814,-24.09579 -179.39814,-53.81945 0,-29.72365 80.31928,-53.81944 179.39814,-53.81944 99.07886,0 179.39815,24.09579 179.39815,53.81944 z"
         transform="matrix(0.0319805,0,0,0.109292,9.855679,-58.05951)"
         sodipodi:cy="567.70831"
         sodipodi:cx="427.08334"
         style="fill:url(#radialGradient4067);fill-opacity:0.75" />
      <path
         id="path672"
         sodipodi:rx="179.39815"
         sodipodi:ry="53.819443"
         sodipodi:type="arc"
         d="m 606.48149,567.70831 c 0,29.72366 -80.31929,53.81945 -179.39815,53.81945 -99.07886,0 -179.39814,-24.09579 -179.39814,-53.81945 0,-29.72365 80.31928,-53.81944 179.39814,-53.81944 99.07886,0 179.39815,24.09579 179.39815,53.81944 z"
         transform="matrix(0.0319805,0,0,0.109292,5.269166,-61.39511)"
         sodipodi:cy="567.70831"
         sodipodi:cx="427.08334"
         style="fill:url(#radialGradient4069);fill-opacity:0.75" />
      <path
         id="path671"
         sodipodi:rx="179.39815"
         sodipodi:ry="53.819443"
         sodipodi:type="arc"
         d="m 606.48149,567.70831 c 0,29.72366 -80.31929,53.81945 -179.39815,53.81945 -99.07886,0 -179.39814,-24.09579 -179.39814,-53.81945 0,-29.72365 80.31928,-53.81944 179.39814,-53.81944 99.07886,0 179.39815,24.09579 179.39815,53.81944 z"
         transform="matrix(0.0319805,0,0,0.109292,0.265717,-60.76966)"
         sodipodi:cy="567.70831"
         sodipodi:cx="427.08334"
         style="fill:url(#radialGradient4071);fill-opacity:0.75" />
      <path
         id="path670"
         sodipodi:rx="179.39815"
         sodipodi:ry="53.819443"
         sodipodi:type="arc"
         d="m 606.48149,567.70831 c 0,29.72366 -80.31929,53.81945 -179.39815,53.81945 -99.07886,0 -179.39814,-24.09579 -179.39814,-53.81945 0,-29.72365 80.31928,-53.81944 179.39814,-53.81944 99.07886,0 179.39815,24.09579 179.39815,53.81944 z"
         transform="matrix(0.0319805,0,0,0.109292,-3.903834,-56.18316)"
         sodipodi:cy="567.70831"
         sodipodi:cx="427.08334"
         style="fill:url(#radialGradient4073);fill-opacity:0.75" />
      <path
         id="path665"
         sodipodi:rx="179.39815"
         sodipodi:ry="53.819443"
         sodipodi:type="arc"
         d="m 606.48149,567.70831 c 0,29.72366 -80.31929,53.81945 -179.39815,53.81945 -99.07886,0 -179.39814,-24.09579 -179.39814,-53.81945 0,-29.72365 80.31928,-53.81944 179.39814,-53.81944 99.07886,0 179.39815,24.09579 179.39815,53.81944 z"
         transform="matrix(0.0319805,0,0,0.109292,-6.614049,-53.47301)"
         sodipodi:cy="567.70831"
         sodipodi:cx="427.08334"
         style="fill:url(#radialGradient669);fill-opacity:0.75" />
      <g
         id="g839"
         transform="matrix(0.058837,0,0,0.058837,-4.768899,-3.296641)">
        <path
           id="path805"
           d="M 397.64,320.25 280.39,282.52 250.74,124.83 345.08,29.147 393.6,46.667 483.9,135.62 397.64,320.25 z"
           inkscape:connector-curvature="0"
           style="fill:#ffffff;stroke:#000000;stroke-width:0.04664122pt" />
        <path
           id="path1791"
           d="m 476.96,339.17 c 18.82,3.77 22.59,16.94 18.82,20.71 -3.76,3.76 -13.17,7.53 -20.7,1.88 -7.54,-5.65 -7.54,-18.82 1.88,-22.59 z"
           inkscape:connector-curvature="0"
           style="fill:#000000;stroke-width:1pt" />
        <path
           id="path1792"
           d="m 286.46,340.43 c -1.83,0.49 -17.16,-12.72 -29.29,-6.6 -12.13,6.12 -20.28,19.83 -8.94,25.45 11.33,5.62 19.43,-0.86 29.37,-7.84 9.94,-6.98 9.58,-8.32 8.86,-11.01 z"
           inkscape:connector-curvature="0"
           style="fill:#000000;stroke-width:1pt" />
        <path
           id="path1793"
           d="m 510.36,306.93 c 10.23,-2.56 33.88,0 30.12,15.06 -3.77,15.06 -35.77,9.41 -56.48,1.88 -1.88,-15.06 21.53,-15.74 26.36,-16.94 z"
           inkscape:connector-curvature="0"
           style="fill:#000000;stroke-width:1pt" />
        <path
           id="path831"
           d="m 359.24,21.363 c -11.31,0 -22.61,4.32 -31.27,12.989 l -154.1,154.06 c -8.49,8.5 -12.76,19.55 -12.93,30.64 h -0.06 c 0,0.04 0.06,0.07 0.06,0.11 0,0.19 -0.06,0.37 -0.06,0.56 h 0.27 c 2.95,11.22 79.15,25.52 87.65,34.02 12.84,12.84 -49.23,22.27 -36.4,35.11 12.84,12.84 77.59,24.84 90.43,37.68 12.84,12.84 -26.23,26.51 -13.39,39.35 12.83,12.84 55.96,-3.21 48.15,30.28 17.34,17.34 53.51,9.06 77.73,-8.28 12.84,-12.84 -24.63,-11.7 -11.79,-24.54 12.84,-12.84 45.25,-12.91 72.56,-43.62 -10.99,-17.1 -46.98,-24.38 -34.14,-37.22 12.84,-12.84 37.8,-6.32 91.66,-30.78 26.29,-11.94 24.12,-21.01 24.02,-32 -0.01,-0.23 0,-0.44 0,-0.67 h -0.06 c -0.17,-11.09 -4.47,-22.14 -12.96,-30.64 L 390.54,34.352 c -8.66,-8.669 -19.99,-12.989 -31.3,-12.989 z m -1.32,20.04 c 5.03,0.131 9.1,3.965 17.06,9.128 l 72.79,53.979 c 0.8,0.51 1.55,1.05 2.25,1.61 0.7,0.55 1.34,1.14 1.93,1.72 0.6,0.59 1.14,1.18 1.64,1.79 0.5,0.61 0.95,1.24 1.35,1.87 0.4,0.64 0.75,1.28 1.05,1.93 0.3,0.65 0.53,1.33 0.73,1.99 0.2,0.66 0.37,1.32 0.47,1.99 0.1,0.67 0.15,1.35 0.15,2.02 l -43.13,-20.831 -4.3,32.561 -23.72,-11.12 -36.63,24.46 -14.02,-48.33 -18.05,42.28 -50.41,5.03 0.56,-22.44 c 0,-5.39 29.06,-43.124 46.75,-52.107 l 32.39,-23.259 c 4.78,-3.097 8.13,-4.35 11.14,-4.271 z m -66.99,220.21 c 22.94,5.95 48.47,13.76 68.95,13.9 l 0.88,9.22 c -17.54,-1.81 -54.65,-10.28 -63.4,-14.75 l -6.43,-8.37 z"
           inkscape:connector-curvature="0"
           style="fill:#000000;stroke-width:1pt" />
      </g>
    </g>
  </g>
</svg>
